<svg width="24" height="25" viewBox="0 0 24 25" fill="none" xmlns="http://www.w3.org/2000/svg">
<mask id="mask0_201_494" style="mask-type:alpha" maskUnits="userSpaceOnUse" x="0" y="0" width="24" height="25">
<rect y="0.5" width="24" height="24" fill="#D9D9D9"/>
</mask>
<g mask="url(#mask0_201_494)">
<path d="M12 21.5C10.7577 21.5 9.58867 21.2638 8.493 20.7915C7.3975 20.3192 6.4445 19.6782 5.634 18.8685C4.8235 18.0588 4.18192 17.1067 3.70925 16.012C3.23642 14.9175 3 13.7479 3 12.5033C3 11.2587 3.23617 10.0887 3.7085 8.993C4.18083 7.8975 4.82183 6.9445 5.6315 6.134C6.44117 5.3235 7.39333 4.68192 8.488 4.20925C9.5825 3.73642 10.7521 3.5 11.9967 3.5C13.2413 3.5 14.4113 3.73625 15.507 4.20875C16.6025 4.68125 17.5555 5.3225 18.366 6.1325C19.1765 6.9425 19.8181 7.895 20.2908 8.99C20.7636 10.085 21 11.255 21 12.5V13.4885C21 14.3308 20.7108 15.0433 20.1322 15.626C19.5536 16.2087 18.8428 16.5 18 16.5C17.4038 16.5 16.8603 16.3365 16.3693 16.0095C15.8783 15.6827 15.5154 15.2474 15.2807 14.7037C14.8999 15.2512 14.4246 15.6875 13.8548 16.0125C13.2849 16.3375 12.6667 16.5 12 16.5C10.8858 16.5 9.94067 16.1118 9.1645 15.3355C8.38817 14.5593 8 13.6142 8 12.5C8 11.3858 8.38817 10.4407 9.1645 9.6645C9.94067 8.88817 10.8858 8.5 12 8.5C13.1142 8.5 14.0593 8.88817 14.8355 9.6645C15.6118 10.4407 16 11.3858 16 12.5V13.4885C16 14.0372 16.1962 14.5096 16.5885 14.9058C16.9808 15.3019 17.4513 15.5 18 15.5C18.5487 15.5 19.0192 15.3019 19.4115 14.9058C19.8038 14.5096 20 14.0372 20 13.4885V12.5C20 10.2667 19.225 8.375 17.675 6.825C16.125 5.275 14.2333 4.5 12 4.5C9.76667 4.5 7.875 5.275 6.325 6.825C4.775 8.375 4 10.2667 4 12.5C4 14.7333 4.775 16.625 6.325 18.175C7.875 19.725 9.76667 20.5 12 20.5H17V21.5H12ZM12 15.5C12.8333 15.5 13.5417 15.2083 14.125 14.625C14.7083 14.0417 15 13.3333 15 12.5C15 11.6667 14.7083 10.9583 14.125 10.375C13.5417 9.79167 12.8333 9.5 12 9.5C11.1667 9.5 10.4583 9.79167 9.875 10.375C9.29167 10.9583 9 11.6667 9 12.5C9 13.3333 9.29167 14.0417 9.875 14.625C10.4583 15.2083 11.1667 15.5 12 15.5Z" fill="#221F1C"/>
</g>
</svg>
