<svg width="40" height="40" viewBox="0 0 40 40" fill="none" xmlns="http://www.w3.org/2000/svg">
<path d="M18.3333 31.6666V8.33329C18.3333 7.41282 19.0795 6.66663 20 6.66663C20.9205 6.66663 21.6666 7.41282 21.6666 8.33329V31.6666C21.6666 32.5871 20.9205 33.3333 20 33.3333C19.0795 33.3333 18.3333 32.5871 18.3333 31.6666Z" fill="black"/>
<path d="M30.4883 18.8217C31.1392 18.1708 32.1942 18.1708 32.8451 18.8217C33.4959 19.4725 33.4959 20.5275 32.8451 21.1784L21.1784 32.8451C20.5275 33.496 19.4725 33.496 18.8216 32.8451L7.15496 21.1784C6.50409 20.5275 6.50409 19.4725 7.15496 18.8217C7.80584 18.1708 8.86086 18.1708 9.51174 18.8217L20 29.3099L30.4883 18.8217Z" fill="black"/>
</svg>
