<svg width="24" height="24" viewBox="0 0 24 24" fill="none" xmlns="http://www.w3.org/2000/svg">
<path d="M19 11C19.5523 11 20 11.4477 20 12C20 12.5523 19.5523 13 19 13H5C4.44772 13 4 12.5523 4 12C4 11.4477 4.44772 11 5 11H19Z" fill="black"/>
<path d="M11.293 4.29302C11.6835 3.90249 12.3165 3.90249 12.707 4.29302L19.707 11.293C20.0975 11.6835 20.0975 12.3166 19.707 12.7071L12.707 19.7071C12.3165 20.0976 11.6835 20.0976 11.293 19.7071C10.9024 19.3166 10.9024 18.6835 11.293 18.293L17.5859 12L11.293 5.70708C10.9024 5.31655 10.9024 4.68354 11.293 4.29302Z" fill="black"/>
</svg>
