<svg width="40" height="40" viewBox="0 0 40 40" fill="none" xmlns="http://www.w3.org/2000/svg">
<path d="M31.6667 18.3334C32.5872 18.3334 33.3334 19.0796 33.3334 20C33.3334 20.9205 32.5872 21.6667 31.6667 21.6667H8.33335C7.41288 21.6667 6.66669 20.9205 6.66669 20C6.66669 19.0796 7.41288 18.3334 8.33335 18.3334H31.6667Z" fill="black"/>
<path d="M18.8216 7.1549C19.4725 6.50403 20.5275 6.50403 21.1784 7.1549L32.845 18.8216C33.4959 19.4724 33.4959 20.5275 32.845 21.1783L21.1784 32.845C20.5275 33.4959 19.4725 33.4959 18.8216 32.845C18.1707 32.1941 18.1707 31.1391 18.8216 30.4882L29.3099 20L18.8216 9.51167C18.1707 8.8608 18.1707 7.80578 18.8216 7.1549Z" fill="black"/>
</svg>
