<svg width="24" height="24" viewBox="0 0 24 24" fill="none" xmlns="http://www.w3.org/2000/svg">
<path d="M19 11C19.5523 11 20 11.4477 20 12C20 12.5523 19.5523 13 19 13H5C4.44772 13 4 12.5523 4 12C4 11.4477 4.44772 11 5 11H19Z" fill="black"/>
<path d="M11.293 4.29302C11.6835 3.90249 12.3165 3.90249 12.707 4.29302C13.0975 4.68354 13.0975 5.31655 12.707 5.70708L6.41405 12L12.707 18.293L12.7754 18.3692C13.0957 18.762 13.0731 19.341 12.707 19.7071C12.3409 20.0732 11.7619 20.0958 11.3691 19.7754L11.293 19.7071L4.29295 12.7071C3.90243 12.3166 3.90243 11.6835 4.29295 11.293L11.293 4.29302Z" fill="black"/>
</svg>
