<svg width="48" height="48" viewBox="0 0 48 48" fill="none" xmlns="http://www.w3.org/2000/svg">
<path d="M40 12C40 10.8954 39.1046 10 38 10H10C8.89543 10 8 10.8954 8 12V40C8 41.1046 8.89543 42 10 42H38C39.1046 42 40 41.1046 40 40V12ZM44 40C44 43.3137 41.3137 46 38 46H10C6.68629 46 4 43.3137 4 40V12C4 8.68629 6.68629 6 10 6H38C41.3137 6 44 8.68629 44 12V40Z" fill="black"/>
<path d="M30 12V4C30 2.89543 30.8954 2 32 2C33.1046 2 34 2.89543 34 4V12C34 13.1046 33.1046 14 32 14C30.8954 14 30 13.1046 30 12Z" fill="black"/>
<path d="M14 12V4C14 2.89543 14.8954 2 16 2C17.1046 2 18 2.89543 18 4V12C18 13.1046 17.1046 14 16 14C14.8954 14 14 13.1046 14 12Z" fill="black"/>
<path d="M42 18C43.1046 18 44 18.8954 44 20C44 21.1046 43.1046 22 42 22H6C4.89543 22 4 21.1046 4 20C4 18.8954 4.89543 18 6 18H42Z" fill="black"/>
</svg>
