<svg width="24" height="25" viewBox="0 0 24 25" fill="none" xmlns="http://www.w3.org/2000/svg">
<mask id="mask0_201_488" style="mask-type:alpha" maskUnits="userSpaceOnUse" x="0" y="0" width="24" height="25">
<rect y="0.5" width="24" height="24" fill="#D9D9D9"/>
</mask>
<g mask="url(#mask0_201_488)">
<path d="M18.9307 20.5C17.2449 20.5 15.5167 20.0779 13.7462 19.2337C11.9757 18.3894 10.3308 17.2044 8.8115 15.6788C7.29233 14.1532 6.11058 12.5084 5.26625 10.7443C4.42208 8.98008 4 7.25508 4 5.56925C4 5.26375 4.1 5.00917 4.3 4.8055C4.5 4.60183 4.75 4.5 5.05 4.5H7.523C7.79483 4.5 8.032 4.58558 8.2345 4.75675C8.43717 4.92792 8.57442 5.1475 8.64625 5.4155L9.14225 7.8C9.18842 8.0795 9.18008 8.32375 9.11725 8.53275C9.05442 8.74175 8.9435 8.91292 8.7845 9.04625L6.5905 11.0923C7.00067 11.8371 7.45417 12.5291 7.951 13.1683C8.44783 13.8074 8.97767 14.4128 9.5405 14.9845C10.1212 15.5653 10.7462 16.1054 11.4155 16.6048C12.0847 17.1041 12.8193 17.5756 13.6193 18.0193L15.7578 15.8422C15.9206 15.6666 16.1036 15.5509 16.3068 15.4952C16.5099 15.4394 16.7346 15.4282 16.9808 15.4615L19.0845 15.8923C19.3563 15.9589 19.5769 16.0958 19.7462 16.303C19.9154 16.51 20 16.7475 20 17.0155V19.45C20 19.75 19.8982 20 19.6945 20.2C19.4908 20.4 19.2362 20.5 18.9307 20.5ZM6.12125 10.1538L8.0405 8.3885C8.1045 8.33717 8.14617 8.26667 8.1655 8.177C8.18467 8.08717 8.18142 8.00383 8.15575 7.927L7.7115 5.80775C7.68583 5.70508 7.641 5.62817 7.577 5.577C7.51283 5.52567 7.4295 5.5 7.327 5.5H5.275C5.198 5.5 5.13392 5.52567 5.08275 5.577C5.03142 5.62817 5.00575 5.69225 5.00575 5.76925C5.02492 6.45258 5.132 7.166 5.327 7.9095C5.52183 8.65317 5.78658 9.40125 6.12125 10.1538ZM14.5712 18.4885C15.2467 18.8232 15.9669 19.0706 16.7318 19.2308C17.4964 19.3911 18.1628 19.477 18.7308 19.4885C18.8077 19.4885 18.8718 19.4628 18.923 19.4115C18.9743 19.3602 19 19.2961 19 19.2193V17.2115C19 17.109 18.9743 17.0257 18.923 16.9615C18.8718 16.8975 18.7949 16.8527 18.6923 16.827L16.8422 16.448C16.7654 16.4223 16.6982 16.4192 16.6405 16.4385C16.5827 16.4577 16.5218 16.4993 16.4578 16.5635L14.5712 18.4885Z" fill="#221F1C"/>
</g>
</svg>
