<svg width="20" height="20" viewBox="0 0 20 20" fill="none" xmlns="http://www.w3.org/2000/svg">
<g clip-path="url(#clip0_339_1253)">
<path d="M17.5 10C17.5 5.85791 14.1421 2.50004 9.99998 2.50004C5.85784 2.50004 2.49998 5.85791 2.49998 10C2.49998 14.1422 5.85784 17.5 9.99998 17.5C14.1421 17.5 17.5 14.1422 17.5 10ZM19.1666 10C19.1666 15.0627 15.0626 19.1667 9.99998 19.1667C4.93737 19.1667 0.833313 15.0627 0.833313 10C0.833313 4.93743 4.93737 0.833374 9.99998 0.833374C15.0626 0.833374 19.1666 4.93743 19.1666 10Z" fill="black"/>
<path d="M9.16669 4.99996C9.16669 4.53972 9.53978 4.16663 10 4.16663C10.4603 4.16663 10.8334 4.53972 10.8334 4.99996V9.48482L13.7061 10.9212L13.7801 10.9635C14.1369 11.1896 14.2718 11.6534 14.0788 12.0393C13.8858 12.4253 13.4337 12.596 13.0388 12.4462L12.9606 12.4121L9.6273 10.7454C9.34498 10.6042 9.16669 10.3156 9.16669 9.99996V4.99996Z" fill="black"/>
</g>
<defs>
<clipPath id="clip0_339_1253">
<rect width="20" height="20" fill="white"/>
</clipPath>
</defs>
</svg>
