<svg width="48" height="48" viewBox="0 0 48 48" fill="none" xmlns="http://www.w3.org/2000/svg">
<mask id="mask0_154_14" style="mask-type:alpha" maskUnits="userSpaceOnUse" x="0" y="0" width="48" height="48">
<rect width="48" height="48" fill="#D9D9D9"/>
</mask>
<g mask="url(#mask0_154_14)">
<path d="M22.5 34.4615C19.0617 34.4615 16.1187 33.3083 13.671 31.002C11.2237 28.6957 10 25.8488 10 22.4615V10C10 9.464 10.1993 8.99667 10.598 8.598C10.9967 8.19933 11.464 8 12 8H36.5C38.019 8 39.3155 8.51033 40.3895 9.531C41.4632 10.5513 42 11.8102 42 13.3075C42 14.8798 41.4705 16.2217 40.4115 17.333C39.3525 18.4443 38.0487 19 36.5 19H34.6155V22.4615C34.6155 25.8045 33.4367 28.6402 31.079 30.9685C28.7213 33.2972 25.8617 34.4615 22.5 34.4615ZM12 17H32.6155V10H12V17ZM22.5 32.4615C25.318 32.4615 27.7083 31.493 29.671 29.556C31.634 27.6187 32.6155 25.2538 32.6155 22.4615V19H12V22.4615C12 25.2795 13.0327 27.6507 15.098 29.575C17.1633 31.4993 19.6307 32.4615 22.5 32.4615ZM34.6155 17H36.5C37.4873 17 38.3175 16.641 38.9905 15.923C39.6635 15.205 40 14.3332 40 13.3075C40 12.3718 39.6507 11.5867 38.952 10.952C38.2533 10.3173 37.436 10 36.5 10H34.6155V17ZM11 40C10.7167 40 10.4792 39.904 10.2875 39.712C10.0958 39.52 10 39.2822 10 38.9985C10 38.7148 10.0958 38.4775 10.2875 38.2865C10.4792 38.0955 10.7167 38 11 38H37C37.2833 38 37.5208 38.096 37.7125 38.288C37.9042 38.48 38 38.7178 38 39.0015C38 39.2852 37.9042 39.5225 37.7125 39.7135C37.5208 39.9045 37.2833 40 37 40H11Z" fill="#1F1F1F"/>
</g>
</svg>
