<svg width="48" height="48" viewBox="0 0 48 48" fill="none" xmlns="http://www.w3.org/2000/svg">
<path d="M44 24C44 22.4087 43.3674 20.883 42.2422 19.7578C41.2578 18.7734 39.967 18.1658 38.5938 18.0293L38 18H36C34.8954 18 34 17.1046 34 16C34 14.8954 34.8954 14 36 14H38C40.6522 14 43.1949 15.0543 45.0703 16.9297C46.9457 18.8051 48 21.3478 48 24C48 26.6522 46.9457 29.1949 45.0703 31.0703C43.1949 32.9457 40.6522 34 38 34H36C34.8954 34 34 33.1046 34 32C34 30.8954 34.8954 30 36 30H38L38.5938 29.9707C39.967 29.8342 41.2578 29.2266 42.2422 28.2422C43.3674 27.117 44 25.5913 44 24Z" fill="black"/>
<path d="M34 18H6V34C6 35.5913 6.63259 37.117 7.75781 38.2422C8.88303 39.3674 10.4087 40 12 40H28C29.5913 40 31.117 39.3674 32.2422 38.2422C33.3674 37.117 34 35.5913 34 34V18ZM38 34C38 36.6522 36.9457 39.1949 35.0703 41.0703C33.1949 42.9457 30.6522 44 28 44H12C9.34783 44 6.80505 42.9457 4.92969 41.0703C3.05432 39.1949 2 36.6522 2 34V16C2 14.8954 2.89543 14 4 14H36C37.1046 14 38 14.8954 38 16V34Z" fill="black"/>
<path d="M10 8V2C10 0.89543 10.8954 0 12 0C13.1046 0 14 0.89543 14 2V8C14 9.10457 13.1046 10 12 10C10.8954 10 10 9.10457 10 8Z" fill="black"/>
<path d="M18 8V2C18 0.89543 18.8954 0 20 0C21.1046 0 22 0.89543 22 2V8C22 9.10457 21.1046 10 20 10C18.8954 10 18 9.10457 18 8Z" fill="black"/>
<path d="M26 8V2C26 0.89543 26.8954 0 28 0C29.1046 0 30 0.89543 30 2V8C30 9.10457 29.1046 10 28 10C26.8954 10 26 9.10457 26 8Z" fill="black"/>
</svg>
