<svg width="48" height="48" viewBox="0 0 48 48" fill="none" xmlns="http://www.w3.org/2000/svg">
<path d="M22 46V2C22 0.89543 22.8954 0 24 0C25.1046 0 26 0.89543 26 2V46C26 47.1046 25.1046 48 24 48C22.8954 48 22 47.1046 22 46Z" fill="black"/>
<path d="M34 31C34 29.6739 33.4728 28.4025 32.5352 27.4648C31.7147 26.6444 30.6387 26.139 29.4941 26.0254L29 26H19C16.6131 26 14.3245 25.0511 12.6367 23.3633C11.0542 21.7807 10.1219 19.6701 10.0117 17.4453L10 17C10 14.6131 10.9489 12.3245 12.6367 10.6367C14.3245 8.94889 16.6131 8 19 8H34C35.1046 8 36 8.89543 36 10C36 11.1046 35.1046 12 34 12H19C17.6739 12 16.4025 12.5272 15.4648 13.4648C14.5272 14.4025 14 15.6739 14 17L14.0254 17.4941C14.139 18.6387 14.6444 19.7147 15.4648 20.5352C16.4025 21.4728 17.6739 22 19 22H29C31.3869 22 33.6755 22.9489 35.3633 24.6367C37.0511 26.3245 38 28.6131 38 31C38 33.3869 37.0511 35.6755 35.3633 37.3633C33.6755 39.0511 31.3869 40 29 40H12C10.8954 40 10 39.1046 10 38C10 36.8954 10.8954 36 12 36H29L29.4941 35.9746C30.6387 35.861 31.7147 35.3556 32.5352 34.5352C33.4728 33.5975 34 32.3261 34 31Z" fill="black"/>
</svg>
