<svg width="48" height="48" viewBox="0 0 48 48" fill="none" xmlns="http://www.w3.org/2000/svg">
<mask id="mask0_154_32" style="mask-type:alpha" maskUnits="userSpaceOnUse" x="0" y="0" width="48" height="48">
<rect width="48" height="48" fill="#D9D9D9"/>
</mask>
<g mask="url(#mask0_154_32)">
<path d="M21.9 32.3616L29.6575 24.6041C29.8525 24.4091 30.0858 24.3052 30.3575 24.2926C30.6295 24.2796 30.8757 24.3834 31.096 24.6041C31.3167 24.8244 31.427 25.0641 31.427 25.3231C31.427 25.5821 31.3167 25.8219 31.096 26.0426L23.031 34.1076C22.7077 34.4309 22.3307 34.5926 21.9 34.5926C21.4693 34.5926 21.0923 34.4309 20.769 34.1076L16.904 30.2426C16.709 30.0476 16.6052 29.8142 16.5925 29.5426C16.5795 29.2706 16.6833 29.0244 16.904 28.8041C17.1243 28.5834 17.364 28.4731 17.623 28.4731C17.882 28.4731 18.1218 28.5834 18.3425 28.8041L21.9 32.3616ZM11.231 42.0001C10.3103 42.0001 9.54167 41.6917 8.925 41.0751C8.30833 40.4584 8 39.6897 8 38.7691V13.2311C8 12.3104 8.30833 11.5417 8.925 10.9251C9.54167 10.3084 10.3103 10.0001 11.231 10.0001H14.769V6.61557C14.769 6.30524 14.871 6.04807 15.075 5.84407C15.279 5.64041 15.536 5.53857 15.846 5.53857C16.1563 5.53857 16.4135 5.64041 16.6175 5.84407C16.8212 6.04807 16.923 6.30524 16.923 6.61557V10.0001H31.231V6.53857C31.231 6.25391 31.3265 6.01607 31.5175 5.82507C31.7085 5.63407 31.9463 5.53857 32.231 5.53857C32.5153 5.53857 32.753 5.63407 32.944 5.82507C33.1353 6.01607 33.231 6.25391 33.231 6.53857V10.0001H36.769C37.6897 10.0001 38.4583 10.3084 39.075 10.9251C39.6917 11.5417 40 12.3104 40 13.2311V38.7691C40 39.6897 39.6917 40.4584 39.075 41.0751C38.4583 41.6917 37.6897 42.0001 36.769 42.0001H11.231ZM11.231 40.0001H36.769C37.077 40.0001 37.3592 39.8719 37.6155 39.6156C37.8718 39.3592 38 39.0771 38 38.7691V21.2311H10V38.7691C10 39.0771 10.1282 39.3592 10.3845 39.6156C10.6408 39.8719 10.923 40.0001 11.231 40.0001ZM10 19.2306H38V13.2311C38 12.9231 37.8718 12.6409 37.6155 12.3846C37.3592 12.1282 37.077 12.0001 36.769 12.0001H11.231C10.923 12.0001 10.6408 12.1282 10.3845 12.3846C10.1282 12.6409 10 12.9231 10 13.2311V19.2306Z" fill="#1F1F1F"/>
</g>
</svg>
