<svg width="48" height="48" viewBox="0 0 48 48" fill="none" xmlns="http://www.w3.org/2000/svg">
<mask id="mask0_154_68" style="mask-type:alpha" maskUnits="userSpaceOnUse" x="0" y="0" width="48" height="48">
<rect width="48" height="48" fill="#D9D9D9"/>
</mask>
<g mask="url(#mask0_154_68)">
<path d="M3.4615 35.154C3.0475 35.154 2.70033 35.0138 2.42 34.7335C2.14 34.4535 2 34.1065 2 33.6925V33.427C2 32.1986 2.65633 31.1793 3.969 30.369C5.282 29.559 6.97183 29.154 9.0385 29.154C9.3435 29.154 9.67033 29.1686 10.019 29.198C10.368 29.2276 10.7387 29.2758 11.131 29.3425C10.818 29.8885 10.5897 30.4486 10.446 31.023C10.3027 31.5973 10.231 32.173 10.231 32.75V35.154H3.4615ZM15.631 35.154C15.1563 35.154 14.7658 34.9991 14.4595 34.6895C14.1532 34.3798 14 33.9961 14 33.5385V32.904C14 32.098 14.234 31.3611 14.702 30.6935C15.17 30.0261 15.8603 29.4488 16.773 28.9615C17.686 28.4745 18.7495 28.1091 19.9635 27.8655C21.1775 27.6218 22.5178 27.5 23.9845 27.5C25.4795 27.5 26.834 27.6218 28.048 27.8655C29.262 28.1091 30.3255 28.4745 31.2385 28.9615C32.1512 29.4488 32.8397 30.0261 33.304 30.6935C33.768 31.3611 34 32.098 34 32.904V33.5385C34 33.9961 33.8452 34.3798 33.5355 34.6895C33.2258 34.9991 32.8422 35.154 32.3845 35.154H15.631ZM37.769 35.154V32.7555C37.769 32.1158 37.6992 31.5153 37.5595 30.954C37.4198 30.3923 37.2103 29.8551 36.931 29.3425C37.3487 29.2758 37.7237 29.2276 38.056 29.198C38.388 29.1686 38.7027 29.154 39 29.154C41.0667 29.154 42.75 29.5571 44.05 30.3635C45.35 31.1698 46 32.191 46 33.427V33.6925C46 34.1065 45.86 34.4535 45.58 34.7335C45.2997 35.0138 44.9525 35.154 44.5385 35.154H37.769ZM16.0575 33.154H31.954V32.731C31.877 31.782 31.0993 31.0063 29.621 30.404C28.143 29.8013 26.2693 29.5 24 29.5C21.7307 29.5 19.857 29.8013 18.379 30.404C16.9007 31.0063 16.1268 31.782 16.0575 32.731V33.154ZM9.028 27.269C8.24267 27.269 7.57367 26.9903 7.021 26.433C6.46867 25.8756 6.1925 25.2056 6.1925 24.423C6.1925 23.6486 6.47117 22.9871 7.0285 22.4385C7.58583 21.8898 8.25583 21.6155 9.0385 21.6155C9.81283 21.6155 10.4808 21.8898 11.0425 22.4385C11.6038 22.9871 11.8845 23.6525 11.8845 24.4345C11.8845 25.1935 11.6108 25.8556 11.0635 26.421C10.5158 26.9863 9.83733 27.269 9.028 27.269ZM39 27.269C38.2333 27.269 37.5673 26.9863 37.002 26.421C36.4367 25.8556 36.154 25.1935 36.154 24.4345C36.154 23.6525 36.4367 22.9871 37.002 22.4385C37.5673 21.8898 38.2358 21.6155 39.0075 21.6155C39.8025 21.6155 40.4743 21.8898 41.023 22.4385C41.5717 22.9871 41.846 23.6486 41.846 24.423C41.846 25.2056 41.5733 25.8756 41.028 26.433C40.4823 26.9903 39.8063 27.269 39 27.269ZM24.0135 26C22.7995 26 21.763 25.5736 20.904 24.721C20.045 23.8686 19.6155 22.8335 19.6155 21.6155C19.6155 20.3731 20.0417 19.3318 20.894 18.4915C21.7467 17.6508 22.782 17.2305 24 17.2305C25.2423 17.2305 26.2837 17.6495 27.124 18.4875C27.9643 19.3251 28.3845 20.3633 28.3845 21.602C28.3845 22.816 27.9657 23.8525 27.128 24.7115C26.2903 25.5705 25.2522 26 24.0135 26ZM24.019 24C24.6757 24 25.234 23.7635 25.694 23.2905C26.1543 22.8171 26.3845 22.2523 26.3845 21.596C26.3845 20.9396 26.156 20.3813 25.699 19.921C25.242 19.4606 24.6757 19.2305 24 19.2305C23.3563 19.2305 22.798 19.4591 22.325 19.9165C21.852 20.3735 21.6155 20.9398 21.6155 21.6155C21.6155 22.2588 21.852 22.8171 22.325 23.2905C22.798 23.7635 23.3627 24 24.019 24Z" fill="#1F1F1F"/>
</g>
</svg>
