<svg width="20" height="20" viewBox="0 0 20 20" fill="none" xmlns="http://www.w3.org/2000/svg">
<g clip-path="url(#clip0_339_1259)">
<path d="M17.5 5.83337C17.5 3.99242 16.0076 2.50004 14.1666 2.50004H5.83331C3.99236 2.50004 2.49998 3.99242 2.49998 5.83337V14.1667C2.49998 16.0077 3.99236 17.5 5.83331 17.5H14.1666C16.0076 17.5 17.5 16.0077 17.5 14.1667V5.83337ZM19.1666 14.1667C19.1666 16.9281 16.9281 19.1667 14.1666 19.1667H5.83331C3.07189 19.1667 0.833313 16.9281 0.833313 14.1667V5.83337C0.833313 3.07195 3.07189 0.833374 5.83331 0.833374H14.1666C16.9281 0.833374 19.1666 3.07195 19.1666 5.83337V14.1667Z" fill="black"/>
<path d="M8.1171 6.26522C8.89494 5.86167 9.78038 5.71352 10.6472 5.84205C11.5315 5.97318 12.3499 6.38586 12.982 7.01799C13.6141 7.65012 14.0268 8.46849 14.1579 9.35279C14.2865 10.2196 14.1383 11.105 13.7348 11.8829C13.3312 12.6608 12.6922 13.2914 11.9094 13.6855C11.1267 14.0794 10.2396 14.2169 9.37442 14.0777C8.50915 13.9385 7.70979 13.5296 7.09008 12.9099C6.47037 12.2902 6.06151 11.4908 5.92227 10.6256C5.78313 9.76041 5.92055 8.87331 6.31452 8.09058C6.70855 7.30783 7.33924 6.66884 8.1171 6.26522ZM10.4031 7.49081C9.88291 7.41368 9.35126 7.50253 8.88451 7.74472C8.41777 7.9869 8.03938 8.3704 7.80297 8.84009C7.56659 9.30976 7.48426 9.84197 7.56778 10.3611C7.65132 10.8803 7.89664 11.3597 8.26846 11.7315C8.64029 12.1034 9.11974 12.3487 9.63891 12.4322C10.158 12.5157 10.6902 12.4334 11.1599 12.197C11.6296 11.9606 12.0131 11.5822 12.2553 11.1155C12.4975 10.6487 12.5863 10.1171 12.5092 9.59693C12.4305 9.06646 12.1828 8.57558 11.8036 8.19638C11.4244 7.81717 10.9335 7.56953 10.4031 7.49081Z" fill="black"/>
<path d="M14.5915 4.58337C15.0517 4.58337 15.4248 4.95647 15.4248 5.41671C15.4248 5.87694 15.0517 6.25004 14.5915 6.25004H14.5833C14.1231 6.25004 13.75 5.87694 13.75 5.41671C13.75 4.95647 14.1231 4.58337 14.5833 4.58337H14.5915Z" fill="black"/>
</g>
<defs>
<clipPath id="clip0_339_1259">
<rect width="20" height="20" fill="white"/>
</clipPath>
</defs>
</svg>
