<svg width="24" height="24" viewBox="0 0 24 24" fill="none" xmlns="http://www.w3.org/2000/svg">
<path d="M21 7C21 4.79086 19.2091 3 17 3H7C4.79086 3 3 4.79086 3 7V17C3 19.2091 4.79086 21 7 21H17C19.2091 21 21 19.2091 21 17V7ZM23 17C23 20.3137 20.3137 23 17 23H7C3.68629 23 1 20.3137 1 17V7C1 3.68629 3.68629 1 7 1H17C20.3137 1 23 3.68629 23 7V17Z" fill="black"/>
<path d="M9.74052 7.51829C10.6739 7.03402 11.7365 6.85625 12.7766 7.01048C13.8378 7.16784 14.8199 7.66306 15.5784 8.42161C16.337 9.18017 16.8322 10.1622 16.9895 11.2234C17.1438 12.2636 16.966 13.3261 16.4817 14.2595C15.9974 15.1929 15.2306 15.9498 14.2913 16.4226C13.352 16.8954 12.2875 17.0603 11.2493 16.8933C10.211 16.7262 9.25175 16.2356 8.50809 15.4919C7.76444 14.7483 7.27381 13.789 7.10673 12.7507C6.93975 11.7125 7.10467 10.648 7.57743 9.70872C8.05026 8.76942 8.80709 8.00263 9.74052 7.51829ZM12.4837 8.989C11.8595 8.89644 11.2215 9.00306 10.6614 9.29368C10.1013 9.58431 9.64726 10.0445 9.36356 10.6081C9.07991 11.1717 8.98111 11.8104 9.08134 12.4333C9.18158 13.0563 9.47597 13.6317 9.92216 14.0779C10.3683 14.5241 10.9437 14.8184 11.5667 14.9187C12.1896 15.0189 12.8283 14.9201 13.3919 14.6365C13.9555 14.3528 14.4157 13.8987 14.7063 13.3386C14.997 12.7785 15.1036 12.1405 15.011 11.5163C14.9166 10.8798 14.6194 10.2907 14.1643 9.83568C13.7093 9.38063 13.1202 9.08346 12.4837 8.989Z" fill="black"/>
<path d="M17.5098 5.5C18.0621 5.5 18.5098 5.94772 18.5098 6.5C18.5098 7.05228 18.0621 7.5 17.5098 7.5H17.5C16.9477 7.5 16.5 7.05228 16.5 6.5C16.5 5.94772 16.9477 5.5 17.5 5.5H17.5098Z" fill="black"/>
</svg>
