<svg width="24" height="25" viewBox="0 0 24 25" fill="none" xmlns="http://www.w3.org/2000/svg">
<mask id="mask0_201_482" style="mask-type:alpha" maskUnits="userSpaceOnUse" x="0" y="0" width="24" height="25">
<rect y="0.5" width="24" height="24" fill="#D9D9D9"/>
</mask>
<g mask="url(#mask0_201_482)">
<path d="M4.6155 19.5C4.15517 19.5 3.77083 19.3458 3.4625 19.0375C3.15417 18.7292 3 18.3448 3 17.8845V7.1155C3 6.65517 3.15417 6.27083 3.4625 5.9625C3.77083 5.65417 4.15517 5.5 4.6155 5.5H19.3845C19.8448 5.5 20.2292 5.65417 20.5375 5.9625C20.8458 6.27083 21 6.65517 21 7.1155V17.8845C21 18.3448 20.8458 18.7292 20.5375 19.0375C20.2292 19.3458 19.8448 19.5 19.3845 19.5H4.6155ZM20 7.3845L12.448 12.3288C12.3775 12.3659 12.3061 12.397 12.2338 12.422C12.1613 12.447 12.0833 12.4595 12 12.4595C11.9167 12.4595 11.8387 12.447 11.7662 12.422C11.6939 12.397 11.6225 12.3659 11.552 12.3288L4 7.3845V17.8845C4 18.064 4.05767 18.2115 4.173 18.327C4.2885 18.4423 4.436 18.5 4.6155 18.5H19.3845C19.564 18.5 19.7115 18.4423 19.827 18.327C19.9423 18.2115 20 18.064 20 17.8845V7.3845ZM12 11.5L19.6923 6.5H4.30775L12 11.5ZM4 7.59625V6.7845V6.81925V6.76825V7.59625Z" fill="#221F1C"/>
</g>
</svg>
