<svg width="20" height="20" viewBox="0 0 20 20" fill="none" xmlns="http://www.w3.org/2000/svg">
<path d="M17.5 5C17.5 4.54357 17.1231 4.16667 16.6666 4.16667H3.33331C2.87688 4.16667 2.49998 4.54357 2.49998 5V15C2.49998 15.4564 2.87688 15.8333 3.33331 15.8333H16.6666C17.1231 15.8333 17.5 15.4564 17.5 15V5ZM19.1666 15C19.1666 16.3769 18.0436 17.5 16.6666 17.5H3.33331C1.95641 17.5 0.833313 16.3769 0.833313 15V5C0.833313 3.6231 1.95641 2.5 3.33331 2.5H16.6666C18.0436 2.5 19.1666 3.6231 19.1666 5V15Z" fill="black"/>
<path d="M17.8556 4.31727C18.2326 4.05349 18.7522 4.14537 19.0161 4.52235C19.2799 4.89938 19.188 5.41894 18.811 5.68283L10.4777 11.5162C10.1908 11.7169 9.80915 11.7169 9.52229 11.5162L1.18895 5.68283L1.12141 5.63075C0.801523 5.35488 0.73653 4.87588 0.983873 4.52235C1.23122 4.169 1.70326 4.06598 2.07193 4.2717L2.14436 4.31727L9.99999 9.81613L17.8556 4.31727Z" fill="black"/>
</svg>
