<svg width="20" height="20" viewBox="0 0 20 20" fill="none" xmlns="http://www.w3.org/2000/svg">
<path d="M10.4623 19.86C10.1823 20.0466 9.8177 20.0466 9.53778 19.86L10 19.1667L10.4623 19.86ZM16.6667 8.33333C16.6667 6.56522 15.9646 4.86922 14.7144 3.61898C13.4641 2.36874 11.7681 1.66667 10 1.66667C8.23191 1.66667 6.53591 2.36874 5.28566 3.61898C4.03542 4.86922 3.33335 6.56522 3.33335 8.33333C3.33335 10.915 5.01285 13.4204 6.85468 15.3646C7.75856 16.3187 8.66568 17.0996 9.34735 17.6424C9.60062 17.8441 9.8227 18.011 10 18.1421C10.1773 18.011 10.3994 17.8441 10.6527 17.6424C11.3344 17.0996 12.2415 16.3187 13.1454 15.3646C14.9872 13.4204 16.6667 10.915 16.6667 8.33333ZM18.3334 8.33333C18.3334 11.585 16.2628 14.4963 14.3547 16.5104C13.3836 17.5354 12.4157 18.3692 11.6911 18.9461C11.3283 19.235 11.0249 19.4611 10.8106 19.6159C10.7035 19.6932 10.6183 19.7531 10.5591 19.7941C10.5296 19.8145 10.5061 19.8303 10.4899 19.8413C10.4818 19.8468 10.475 19.8512 10.4704 19.8543C10.4682 19.8558 10.4661 19.8575 10.4647 19.8584L10.4631 19.8592V19.86C10.4628 19.8602 10.4623 19.86 10 19.1667C9.53777 19.86 9.53721 19.8602 9.53697 19.86V19.8592L9.53534 19.8584C9.53397 19.8575 9.53188 19.8558 9.52964 19.8543C9.52504 19.8512 9.51822 19.8468 9.51011 19.8413C9.4939 19.8303 9.47041 19.8145 9.44094 19.7941C9.38176 19.7531 9.29653 19.6932 9.18947 19.6159C8.97512 19.4611 8.67172 19.235 8.30894 18.9461C7.58438 18.3692 6.61643 17.5354 5.64537 16.5104C3.73721 14.4963 1.66669 11.585 1.66669 8.33333C1.66669 6.1232 2.54448 4.0034 4.10728 2.44059C5.67008 0.877789 7.78988 0 10 0C12.2102 0 14.33 0.877789 15.8928 2.44059C17.4556 4.0034 18.3334 6.1232 18.3334 8.33333Z" fill="black"/>
<path d="M11.6667 8.33333C11.6667 7.41286 10.9205 6.66667 10 6.66667C9.07955 6.66667 8.33335 7.41286 8.33335 8.33333C8.33335 9.25381 9.07955 10 10 10C10.9205 10 11.6667 9.25381 11.6667 8.33333ZM13.3334 8.33333C13.3334 10.1743 11.841 11.6667 10 11.6667C8.15907 11.6667 6.66669 10.1743 6.66669 8.33333C6.66669 6.49238 8.15907 5 10 5C11.841 5 13.3334 6.49238 13.3334 8.33333Z" fill="black"/>
</svg>
