<svg width="48" height="48" viewBox="0 0 48 48" fill="none" xmlns="http://www.w3.org/2000/svg">
<path d="M26 4.00012L26.1094 4.00403C30.7696 4.26113 35.1723 6.22715 38.4726 9.52747C41.773 12.8278 43.739 17.2305 43.9961 21.8907C43.9981 21.9272 44 21.9636 44 22.0001V22.9943L43.9941 23.549C43.9198 26.3103 43.2326 29.022 41.9863 31.4923L41.9883 31.4943C40.4111 34.6498 37.9867 37.3048 34.9863 39.1603C31.9869 41.015 28.5304 41.9962 25.0039 41.9982L25.0058 42.0001L25.0019 41.9982L25 42.0001V41.9982C22.3324 42.0044 19.699 41.4401 17.2715 40.3497L6.6328 43.8966C5.91413 44.1362 5.12159 43.9498 4.58592 43.4142C4.05028 42.8785 3.86395 42.086 4.1035 41.3673L7.64842 30.7267C6.55808 28.2982 5.99303 25.6628 5.99999 22.9943C6.0023 19.4684 6.98543 16.0126 8.83983 13.0138C10.6953 10.0134 13.3503 7.58899 16.5058 6.01184C19.1398 4.68287 22.0498 3.9952 25 4.00208V4.00012H26ZM24.9941 8.00012C22.6696 7.99416 20.3756 8.53804 18.3008 9.58606L18.2949 9.58997C15.8036 10.8351 13.7071 12.7485 12.2422 15.1173C10.7775 17.4858 10.0012 20.2153 9.99999 23.0001V23.006C9.99402 25.3305 10.5379 27.6245 11.5859 29.6993C11.8259 30.1751 11.8657 30.727 11.6973 31.2325L9.16014 38.838L16.7676 36.3029L16.959 36.2501C17.4098 36.1481 17.8844 36.2042 18.3008 36.4142C20.3756 37.4622 22.6696 38.0061 24.9941 38.0001H25C27.7848 37.9989 30.5143 37.2226 32.8828 35.7579C35.2516 34.293 37.165 32.1965 38.4101 29.7052L38.414 29.6993C39.4621 27.6245 40.006 25.3305 40 23.006V22.0587C39.7855 18.4007 38.2364 14.9475 35.6445 12.3556C33.0522 9.76327 29.5981 8.21415 25.9394 8.00012H24.9941Z" fill="black"/>
</svg>
