<svg width="48" height="48" viewBox="0 0 48 48" fill="none" xmlns="http://www.w3.org/2000/svg">
<path d="M42 10C42 8.89543 41.1046 8 40 8H8C6.89543 8 6 8.89543 6 10V30C6 31.1046 6.89543 32 8 32H40C41.1046 32 42 31.1046 42 30V10ZM46 30C46 33.3137 43.3137 36 40 36H8C4.68629 36 2 33.3137 2 30V10C2 6.68629 4.68629 4 8 4H40C43.3137 4 46 6.68629 46 10V30Z" fill="black"/>
<path d="M32 40C33.1046 40 34 40.8954 34 42C34 43.1046 33.1046 44 32 44H16C14.8954 44 14 43.1046 14 42C14 40.8954 14.8954 40 16 40H32Z" fill="black"/>
<path d="M22 42V34C22 32.8954 22.8954 32 24 32C25.1046 32 26 32.8954 26 34V42C26 43.1046 25.1046 44 24 44C22.8954 44 22 43.1046 22 42Z" fill="black"/>
</svg>
