<svg width="48" height="48" viewBox="0 0 48 48" fill="none" xmlns="http://www.w3.org/2000/svg">
<mask id="mask0_154_62" style="mask-type:alpha" maskUnits="userSpaceOnUse" x="0" y="0" width="48" height="48">
<rect width="48" height="48" fill="#D9D9D9"/>
</mask>
<g mask="url(#mask0_154_62)">
<path d="M24.0065 42C21.5175 42 19.1773 41.5277 16.986 40.583C14.795 39.6383 12.889 38.3563 11.268 36.737C9.647 35.1177 8.36383 33.2133 7.4185 31.024C6.47283 28.835 6 26.4958 6 24.0065C6 21.5175 6.47233 19.1773 7.417 16.986C8.36167 14.795 9.64367 12.889 11.263 11.268C12.8823 9.647 14.7867 8.36383 16.976 7.4185C19.165 6.47283 21.5042 6 23.9935 6C26.4825 6 28.8227 6.47233 31.014 7.417C33.205 8.36167 35.111 9.64367 36.732 11.263C38.353 12.8823 39.6362 14.7867 40.5815 16.976C41.5272 19.165 42 21.5042 42 23.9935C42 26.4825 41.5277 28.8227 40.583 31.014C39.6383 33.205 38.3563 35.111 36.737 36.732C35.1177 38.353 33.2133 39.6362 31.024 40.5815C28.835 41.5272 26.4958 42 24.0065 42ZM24 40C28.4667 40 32.25 38.45 35.35 35.35C38.45 32.25 40 28.4667 40 24C40 19.5333 38.45 15.75 35.35 12.65C32.25 9.55 28.4667 8 24 8C19.5333 8 15.75 9.55 12.65 12.65C9.55 15.75 8 19.5333 8 24C8 28.4667 9.55 32.25 12.65 35.35C15.75 38.45 19.5333 40 24 40ZM23.95 37.231C24.2117 37.231 24.4405 37.1328 24.6365 36.9365C24.8328 36.7405 24.931 36.5117 24.931 36.25V34.8845C26.3667 34.7642 27.7422 34.2488 29.0575 33.3385C30.3732 32.4282 31.031 31.0153 31.031 29.1C31.031 27.7 30.6053 26.5063 29.754 25.519C28.9027 24.532 27.277 23.6052 24.877 22.7385C22.6717 21.9692 21.2627 21.3088 20.65 20.7575C20.0373 20.2065 19.731 19.4207 19.731 18.4C19.731 17.3793 20.129 16.5293 20.925 15.85C21.721 15.1707 22.7793 14.831 24.1 14.831C24.9207 14.831 25.6387 14.9925 26.254 15.3155C26.8693 15.6385 27.395 16.0642 27.831 16.5925C27.9847 16.7872 28.1737 16.9275 28.398 17.0135C28.6223 17.0995 28.8378 17.0975 29.0445 17.0075C29.3262 16.8998 29.5187 16.716 29.622 16.456C29.7253 16.1957 29.695 15.9552 29.531 15.7345C28.9977 14.9935 28.3328 14.3883 27.5365 13.919C26.7405 13.45 25.9053 13.1822 25.031 13.1155V11.75C25.031 11.4883 24.9328 11.2595 24.7365 11.0635C24.5405 10.8672 24.3117 10.769 24.05 10.769C23.7883 10.769 23.5595 10.8672 23.3635 11.0635C23.1672 11.2595 23.069 11.4883 23.069 11.75V13.1155C21.3257 13.4052 20.0065 14.0552 19.1115 15.0655C18.2165 16.0758 17.769 17.1873 17.769 18.4C17.769 19.8383 18.221 20.9897 19.125 21.854C20.029 22.718 21.554 23.5385 23.7 24.3155C25.8513 25.1078 27.2968 25.8232 28.0365 26.4615C28.7762 27.0998 29.146 27.9793 29.146 29.1C29.146 30.5077 28.6327 31.5212 27.606 32.1405C26.579 32.7595 25.477 33.069 24.3 33.069C23.2667 33.069 22.3327 32.803 21.498 32.271C20.6633 31.739 19.9615 30.9923 19.3925 30.031C19.2538 29.795 19.0577 29.6385 18.804 29.5615C18.55 29.4845 18.3105 29.4923 18.0855 29.585C17.8432 29.6773 17.6658 29.8528 17.5535 30.1115C17.4408 30.3705 17.446 30.6142 17.569 30.8425C18.1537 31.9502 18.896 32.8173 19.796 33.444C20.696 34.071 21.7537 34.5178 22.969 34.7845V36.25C22.969 36.5117 23.0672 36.7405 23.2635 36.9365C23.4595 37.1328 23.6883 37.231 23.95 37.231Z" fill="#1F1F1F"/>
</g>
</svg>
