<svg width="48" height="48" viewBox="0 0 48 48" fill="none" xmlns="http://www.w3.org/2000/svg">
<mask id="mask0_154_44" style="mask-type:alpha" maskUnits="userSpaceOnUse" x="0" y="0" width="48" height="48">
<rect width="48" height="48" fill="#D9D9D9"/>
</mask>
<g mask="url(#mask0_154_44)">
<path d="M7 42.4615C6.71667 42.4615 6.47917 42.3655 6.2875 42.1735C6.09583 41.9818 6 41.744 6 41.46C6 41.1763 6.09583 40.939 6.2875 40.748C6.47917 40.557 6.71667 40.4615 7 40.4615H41C41.2833 40.4615 41.5208 40.5575 41.7125 40.7495C41.9042 40.9415 42 41.1793 42 41.463C42 41.7467 41.9042 41.984 41.7125 42.175C41.5208 42.366 41.2833 42.4615 41 42.4615H7ZM11.6155 38C11.1578 38 10.7742 37.8452 10.4645 37.5355C10.1548 37.2258 10 36.8422 10 36.3845V28.6155C8.84867 26.3282 7.9795 24.125 7.3925 22.006C6.80517 19.8867 6.5115 17.8795 6.5115 15.9845C6.5115 14.4128 6.71217 12.7783 7.1135 11.081C7.51483 9.38333 8.1295 7.41783 8.9575 5.1845C9.0705 4.8435 9.26033 4.56083 9.527 4.3365C9.79367 4.11217 10.1142 4 10.4885 4C10.9322 4 11.3027 4.177 11.6 4.531C11.8973 4.88467 12.0178 5.2885 11.9615 5.7425L11.45 9.869C11.25 11.623 11.4622 13.3448 12.0865 15.0345C12.7108 16.7242 13.6153 18.2325 14.8 19.5595C15.9847 20.8865 17.3757 21.9583 18.973 22.775C20.5703 23.5917 22.246 24 24 24C26.077 24 27.9635 24.1442 29.6595 24.4325C31.3558 24.7212 32.8002 25.1462 33.9925 25.7075C35.2615 26.3205 36.2467 27.1097 36.948 28.075C37.6493 29.0403 38 30.2487 38 31.7V36.3845C38 36.8422 37.8452 37.2258 37.5355 37.5355C37.2258 37.8452 36.8422 38 36.3845 38H11.6155ZM12 36H36V31.7C36 30.7717 35.7615 29.9608 35.2845 29.2675C34.8075 28.5738 34.0998 28.0052 33.1615 27.5615C32.0768 27.0488 30.75 26.6603 29.181 26.396C27.6117 26.132 25.8847 26 24 26C21.954 26 20.002 25.5243 18.144 24.573C16.2863 23.6217 14.6737 22.3748 13.306 20.8325C11.938 19.2902 10.9013 17.5402 10.196 15.5825C9.491 13.6248 9.259 11.6307 9.5 9.6C9.16667 10.6 8.925 11.641 8.775 12.723C8.625 13.805 8.55 14.8922 8.55 15.9845C8.55 17.6872 8.84683 19.5198 9.4405 21.4825C10.0342 23.4455 10.8873 25.636 12 28.054V36ZM24 21.077C22.35 21.077 20.9375 20.4895 19.7625 19.3145C18.5875 18.1395 18 16.727 18 15.077C18 13.427 18.5875 12.0145 19.7625 10.8395C20.9375 9.6645 22.35 9.077 24 9.077C25.65 9.077 27.0625 9.6645 28.2375 10.8395C29.4125 12.0145 30 13.427 30 15.077C30 16.727 29.4125 18.1395 28.2375 19.3145C27.0625 20.4895 25.65 21.077 24 21.077ZM24 19.077C25.1 19.077 26.0417 18.6853 26.825 17.902C27.6083 17.1187 28 16.177 28 15.077C28 13.977 27.6083 13.0353 26.825 12.252C26.0417 11.4687 25.1 11.077 24 11.077C22.9 11.077 21.9583 11.4687 21.175 12.252C20.3917 13.0353 20 13.977 20 15.077C20 16.177 20.3917 17.1187 21.175 17.902C21.9583 18.6853 22.9 19.077 24 19.077ZM17.077 38V37.1885C17.077 35.3142 17.7367 33.7243 19.056 32.419C20.375 31.114 21.9717 30.4615 23.846 30.4615H29.6155C29.8988 30.4615 30.1363 30.5575 30.328 30.7495C30.5197 30.9415 30.6155 31.1793 30.6155 31.463C30.6155 31.7467 30.5197 31.984 30.328 32.175C30.1363 32.366 29.8988 32.4615 29.6155 32.4615H23.846C22.4947 32.4615 21.362 32.9212 20.448 33.8405C19.534 34.7595 19.077 35.8755 19.077 37.1885V38H17.077Z" fill="#1F1F1F"/>
</g>
</svg>
