<svg width="24" height="25" viewBox="0 0 24 25" fill="none" xmlns="http://www.w3.org/2000/svg">
<mask id="mask0_201_470" style="mask-type:alpha" maskUnits="userSpaceOnUse" x="0" y="0" width="24" height="25">
<rect y="0.5" width="24" height="24" fill="#D9D9D9"/>
</mask>
<g mask="url(#mask0_201_470)">
<path d="M12.5 12.2923V8C12.5 7.85833 12.452 7.73958 12.356 7.64375C12.26 7.54792 12.1411 7.5 11.9993 7.5C11.8574 7.5 11.7388 7.54792 11.6433 7.64375C11.5478 7.73958 11.5 7.85833 11.5 8V12.3787C11.5 12.4809 11.5186 12.5799 11.5558 12.6757C11.5929 12.7714 11.6551 12.8628 11.7423 12.95L15.2923 16.5C15.3859 16.5937 15.5007 16.6437 15.6365 16.65C15.7725 16.6563 15.8937 16.6063 16 16.5C16.1063 16.3937 16.1595 16.2758 16.1595 16.1463C16.1595 16.0168 16.1063 15.8988 16 15.7923L12.5 12.2923ZM12.0033 21.5C10.7587 21.5 9.58867 21.2638 8.493 20.7915C7.3975 20.3192 6.4445 19.6782 5.634 18.8685C4.8235 18.0588 4.18192 17.1067 3.70925 16.012C3.23642 14.9175 3 13.7479 3 12.5033C3 11.2587 3.23617 10.0887 3.7085 8.993C4.18083 7.8975 4.82183 6.9445 5.6315 6.134C6.44117 5.3235 7.39333 4.68192 8.488 4.20925C9.5825 3.73642 10.7521 3.5 11.9967 3.5C13.2413 3.5 14.4113 3.73617 15.507 4.2085C16.6025 4.68083 17.5555 5.32183 18.366 6.1315C19.1765 6.94117 19.8181 7.89333 20.2908 8.988C20.7636 10.0825 21 11.2521 21 12.4967C21 13.7413 20.7638 14.9113 20.2915 16.007C19.8192 17.1025 19.1782 18.0555 18.3685 18.866C17.5588 19.6765 16.6067 20.3181 15.512 20.7908C14.4175 21.2636 13.2479 21.5 12.0033 21.5ZM12 20.5C14.2167 20.5 16.1042 19.7208 17.6625 18.1625C19.2208 16.6042 20 14.7167 20 12.5C20 10.2833 19.2208 8.39583 17.6625 6.8375C16.1042 5.27917 14.2167 4.5 12 4.5C9.78333 4.5 7.89583 5.27917 6.3375 6.8375C4.77917 8.39583 4 10.2833 4 12.5C4 14.7167 4.77917 16.6042 6.3375 18.1625C7.89583 19.7208 9.78333 20.5 12 20.5Z" fill="#221F1C"/>
</g>
</svg>
