<svg width="48" height="48" viewBox="0 0 48 48" fill="none" xmlns="http://www.w3.org/2000/svg">
<path d="M16 12C16 9.79086 14.2091 8 12 8C9.79086 8 8 9.79086 8 12C8 14.2091 9.79086 16 12 16C14.2091 16 16 14.2091 16 12ZM20 12C20 16.4183 16.4183 20 12 20C7.58172 20 4 16.4183 4 12C4 7.58172 7.58172 4 12 4C16.4183 4 20 7.58172 20 12Z" fill="black"/>
<path d="M16 36C16 33.7909 14.2091 32 12 32C9.79086 32 8 33.7909 8 36C8 38.2091 9.79086 40 12 40C14.2091 40 16 38.2091 16 36ZM20 36C20 40.4183 16.4183 44 12 44C7.58172 44 4 40.4183 4 36C4 31.5817 7.58172 28 12 28C16.4183 28 20 31.5817 20 36Z" fill="black"/>
<path d="M38.5857 6.58597C39.3667 5.80496 40.6328 5.80504 41.4139 6.58597C42.1949 7.36702 42.1949 8.63305 41.4139 9.4141L17.6541 33.1739C16.873 33.9549 15.607 33.9549 14.826 33.1739C14.045 32.3928 14.045 31.1267 14.826 30.3457L38.5857 6.58597Z" fill="black"/>
<path d="M27.524 27.5478C28.2557 26.8148 29.4156 26.7669 30.2017 27.4072L30.3521 27.5439L41.4127 38.585L41.5513 38.7353C42.1928 39.5203 42.1462 40.6802 41.4146 41.4131C40.6342 42.1943 39.3681 42.1952 38.5865 41.415L27.5279 30.376L27.3892 30.2236C26.7482 29.4389 26.7931 28.2807 27.524 27.5478Z" fill="black"/>
<path d="M14.826 14.8259C15.607 14.0449 16.873 14.0449 17.6541 14.8259L25.4139 22.5857C26.1949 23.3667 26.1949 24.6327 25.4139 25.4138C24.6328 26.1948 23.3668 26.1948 22.5857 25.4138L14.826 17.654C14.0449 16.873 14.0449 15.6069 14.826 14.8259Z" fill="black"/>
</svg>
