<svg width="48" height="48" viewBox="0 0 48 48" fill="none" xmlns="http://www.w3.org/2000/svg">
<mask id="mask0_154_20" style="mask-type:alpha" maskUnits="userSpaceOnUse" x="0" y="0" width="48" height="48">
<rect width="48" height="48" fill="#D9D9D9"/>
</mask>
<g mask="url(#mask0_154_20)">
<path d="M31.3845 41.6925C31.1011 41.6925 30.8636 41.5965 30.672 41.4045C30.4803 41.2125 30.3845 40.9747 30.3845 40.691C30.3845 40.4073 30.4803 40.17 30.672 39.979C30.8636 39.788 31.1011 39.6925 31.3845 39.6925H36.846V37.231H31.3845C31.1011 37.231 30.8636 37.135 30.672 36.943C30.4803 36.751 30.3845 36.5132 30.3845 36.2295C30.3845 35.9458 30.4803 35.7085 30.672 35.5175C30.8636 35.3265 31.1011 35.231 31.3845 35.231H36.846V32.769H31.3845C31.1011 32.769 30.8636 32.6732 30.672 32.4815C30.4803 32.2895 30.3845 32.0517 30.3845 31.768C30.3845 31.4843 30.4803 31.247 30.672 31.056C30.8636 30.8647 31.1011 30.769 31.3845 30.769H36.846V28.3075H31.3845C31.1011 28.3075 30.8636 28.2117 30.672 28.02C30.4803 27.828 30.3845 27.5902 30.3845 27.3065C30.3845 27.0228 30.4803 26.7853 30.672 26.594C30.8636 26.403 31.1011 26.3075 31.3845 26.3075H36.846V23.846H31.3845C31.1011 23.846 30.8636 23.7502 30.672 23.5585C30.4803 23.3665 30.3845 23.1287 30.3845 22.845C30.3845 22.561 30.4803 22.3235 30.672 22.1325C30.8636 21.9415 31.1011 21.846 31.3845 21.846H36.846V19.3845H31.3845C31.1011 19.3845 30.8636 19.2885 30.672 19.0965C30.4803 18.9048 30.3845 18.667 30.3845 18.383C30.3845 18.0993 30.4803 17.862 30.672 17.671C30.8636 17.48 31.1011 17.3845 31.3845 17.3845H37.846C38.6896 17.3845 39.4006 17.7377 39.979 18.444C40.557 19.1507 40.846 19.9257 40.846 20.769V38.6925C40.846 39.5358 40.557 40.2467 39.979 40.825C39.4006 41.4033 38.6896 41.6925 37.846 41.6925H31.3845ZM17.6155 30C19.8155 30 21.6988 28.9167 23.2655 26.75C24.8321 24.5833 25.6155 22 25.6155 19C25.6155 16 24.8321 13.4167 23.2655 11.25C21.6988 9.08333 19.8155 8 17.6155 8C15.4155 8 13.5321 9.08333 11.9655 11.25C10.3988 13.4167 9.61548 16 9.61548 19C9.61548 22 10.3988 24.5833 11.9655 26.75C13.5321 28.9167 15.4155 30 17.6155 30ZM17.6155 41.6925C16.6051 41.6925 15.8013 41.3123 15.204 40.552C14.6063 39.7917 14.3601 38.932 14.4655 37.973L15.1885 31.577C12.9988 30.8873 11.1891 29.3867 9.75948 27.075C8.33015 24.7633 7.61548 22.0717 7.61548 19C7.61548 15.389 8.58681 12.3195 10.5295 9.7915C12.4721 7.26383 14.8311 6 17.6065 6C20.3815 6 22.7435 7.26383 24.6925 9.7915C26.6411 12.3195 27.6155 15.389 27.6155 19C27.6155 22.0717 26.9006 24.7633 25.471 27.075C24.0416 29.3867 22.2321 30.8873 20.0425 31.577L20.7655 37.973C20.8961 38.932 20.6471 39.7917 20.0185 40.552C19.3898 41.3123 18.5888 41.6925 17.6155 41.6925Z" fill="#1F1F1F"/>
</g>
</svg>
