<svg width="20" height="20" viewBox="0 0 20 20" fill="none" xmlns="http://www.w3.org/2000/svg">
<path d="M15 3.33337C15 2.87314 14.6269 2.50004 14.1666 2.50004H5.83331C5.37308 2.50004 4.99998 2.87314 4.99998 3.33337V16.6667C4.99998 17.1269 5.37308 17.5 5.83331 17.5H14.1666C14.6269 17.5 15 17.1269 15 16.6667V3.33337ZM16.6666 16.6667C16.6666 18.0474 15.5474 19.1667 14.1666 19.1667H5.83331C4.4526 19.1667 3.33331 18.0474 3.33331 16.6667V3.33337C3.33331 1.95266 4.4526 0.833374 5.83331 0.833374H14.1666C15.5474 0.833374 16.6666 1.95266 16.6666 3.33337V16.6667Z" fill="black"/>
<path d="M10.0082 14.1666C10.4684 14.1666 10.8415 14.5397 10.8415 15C10.8415 15.4602 10.4684 15.8333 10.0082 15.8333H10C9.53978 15.8333 9.16669 15.4602 9.16669 15C9.16669 14.5397 9.53978 14.1666 10 14.1666H10.0082Z" fill="black"/>
</svg>
