<svg width="100" height="100" viewBox="0 0 100 100" fill="none" xmlns="http://www.w3.org/2000/svg">
<path d="M87.5 50C87.5 29.2893 70.7107 12.5 50 12.5C29.2893 12.5 12.5 29.2893 12.5 50C12.5 70.7106 29.2893 87.5 50 87.5C70.7107 87.5 87.5 70.7106 87.5 50ZM95.8334 50C95.8334 75.313 75.3131 95.8333 50 95.8333C24.687 95.8333 4.16669 75.313 4.16669 50C4.16669 24.6869 24.687 4.16663 50 4.16663C75.3131 4.16663 95.8334 24.6869 95.8334 50Z" fill="black"/>
<path d="M70.8333 50C70.8333 38.4941 61.5059 29.1667 50 29.1667C38.494 29.1667 29.1666 38.4941 29.1666 50C29.1666 61.506 38.494 70.8334 50 70.8334C61.5059 70.8334 70.8333 61.506 70.8333 50ZM79.1666 50C79.1666 66.1083 66.1083 79.1667 50 79.1667C33.8917 79.1667 20.8333 66.1083 20.8333 50C20.8333 33.8917 33.8917 20.8334 50 20.8334C66.1083 20.8334 79.1666 33.8917 79.1666 50Z" fill="black"/>
<path d="M54.1667 50C54.1667 47.6988 52.3012 45.8333 50 45.8333C47.6988 45.8333 45.8333 47.6988 45.8333 50C45.8333 52.3012 47.6988 54.1667 50 54.1667C52.3012 54.1667 54.1667 52.3012 54.1667 50ZM62.5 50C62.5 56.9036 56.9036 62.5 50 62.5C43.0964 62.5 37.5 56.9036 37.5 50C37.5 43.0964 43.0964 37.5 50 37.5C56.9036 37.5 62.5 43.0964 62.5 50Z" fill="black"/>
</svg>
