<svg width="100" height="100" viewBox="0 0 100 100" fill="none" xmlns="http://www.w3.org/2000/svg">
<mask id="mask0_166_22" style="mask-type:alpha" maskUnits="userSpaceOnUse" x="0" y="0" width="100" height="100">
<rect width="100" height="100" fill="#D9D9D9"/>
</mask>
<g mask="url(#mask0_166_22)">
<path d="M50.0188 63.1405C54.2528 63.1405 57.8456 61.6586 60.7969 58.6947C63.7483 55.7308 65.224 52.1319 65.224 47.8978C65.224 43.6638 63.7421 40.0711 60.7782 37.1197C57.8143 34.1683 54.2153 32.6926 49.9813 32.6926C45.7473 32.6926 42.1546 34.1746 39.2032 37.1385C36.2518 40.1024 34.7761 43.7013 34.7761 47.9353C34.7761 52.1694 36.258 55.7621 39.2219 58.7135C42.1858 61.6648 45.7848 63.1405 50.0188 63.1405ZM50.0001 59.1666C46.8751 59.1666 44.2188 58.0728 42.0313 55.8853C39.8438 53.6978 38.7501 51.0416 38.7501 47.9166C38.7501 44.7916 39.8438 42.1353 42.0313 39.9478C44.2188 37.7603 46.8751 36.6666 50.0001 36.6666C53.1251 36.6666 55.7813 37.7603 57.9688 39.9478C60.1563 42.1353 61.2501 44.7916 61.2501 47.9166C61.2501 51.0416 60.1563 53.6978 57.9688 55.8853C55.7813 58.0728 53.1251 59.1666 50.0001 59.1666ZM50.0001 74.9999C41.7626 74.9999 34.2077 72.8204 27.3355 68.4614C20.4633 64.1024 14.9119 58.3867 10.6813 51.3145C10.3341 50.7423 10.0869 50.1784 9.93964 49.6228C9.79311 49.0673 9.71985 48.4971 9.71985 47.9124C9.71985 47.3277 9.79311 46.7589 9.93964 46.2062C10.0869 45.6534 10.3341 45.0909 10.6813 44.5187C14.9119 37.4464 20.4633 31.7308 27.3355 27.3718C34.2077 23.0128 41.7626 20.8333 50.0001 20.8333C58.2376 20.8333 65.7924 23.0128 72.6646 27.3718C79.5369 31.7308 85.0883 37.4464 89.3188 44.5187C89.666 45.0909 89.9133 45.6548 90.0605 46.2103C90.207 46.7659 90.2803 47.336 90.2803 47.9208C90.2803 48.5055 90.207 49.0742 90.0605 49.627C89.9133 50.1798 89.666 50.7423 89.3188 51.3145C85.0883 58.3867 79.5369 64.1024 72.6646 68.4614C65.7924 72.8204 58.2376 74.9999 50.0001 74.9999ZM50.0001 70.8333C57.8473 70.8333 65.0521 68.7673 71.6146 64.6353C78.1771 60.5034 83.1945 54.9305 86.6667 47.9166C83.1945 40.9027 78.1771 35.3298 71.6146 31.1978C65.0521 27.0659 57.8473 24.9999 50.0001 24.9999C42.1528 24.9999 34.948 27.0659 28.3855 31.1978C21.823 35.3298 16.8056 40.9027 13.3334 47.9166C16.8056 54.9305 21.823 60.5034 28.3855 64.6353C34.948 68.7673 42.1528 70.8333 50.0001 70.8333Z" fill="#1F1F1F"/>
</g>
</svg>
