<svg width="100" height="100" viewBox="0 0 100 100" fill="none" xmlns="http://www.w3.org/2000/svg">
<g clip-path="url(#clip0_339_1207)">
<path d="M50 12.5C66.248 12.5 78.7312 21.7783 86.8937 30.485C91.012 34.878 94.1574 39.254 96.2728 42.5293C97.3329 44.1707 98.1406 45.5487 98.6898 46.5251C98.9643 47.0131 99.1756 47.4027 99.3205 47.6766C99.3928 47.8133 99.4517 47.9208 99.4914 47.998C99.5111 48.0363 99.5245 48.0687 99.5362 48.0916C99.542 48.1031 99.5487 48.1126 99.5524 48.1201L99.5565 48.1283L99.5606 48.1323C99.5613 48.1339 99.5601 48.1366 95.8334 50C99.5601 51.8634 99.5613 51.8661 99.5606 51.8677L99.5565 51.8717L99.5524 51.8799C99.5487 51.8874 99.542 51.8969 99.5362 51.9084C99.5245 51.9313 99.5111 51.9637 99.4914 52.002C99.4517 52.0792 99.3928 52.1867 99.3205 52.3234C99.1756 52.5973 98.9643 52.9869 98.6898 53.4749C98.1406 54.4513 97.3329 55.8293 96.2728 57.4707C94.1574 60.746 91.012 65.122 86.8937 69.515C78.7312 78.2217 66.248 87.5 50 87.5C33.7521 87.5 21.2689 78.2217 13.1063 69.515C8.98802 65.122 5.84264 60.746 3.72722 57.4707C2.66714 55.8293 1.85947 54.4513 1.31023 53.4749C1.0357 52.9869 0.824463 52.5973 0.679531 52.3234C0.607205 52.1867 0.548356 52.0792 0.508633 52.002C0.488971 51.9637 0.475483 51.9313 0.463874 51.9084C0.45805 51.8969 0.45136 51.8874 0.447597 51.8799L0.443528 51.8717L0.439459 51.8677C0.438694 51.8661 0.439893 51.8634 4.16667 50C0.439893 48.1366 0.438694 48.1339 0.439459 48.1323L0.443528 48.1283L0.447597 48.1201C0.45136 48.1126 0.45805 48.1031 0.463874 48.0916C0.475483 48.0687 0.488971 48.0363 0.508633 47.998C0.548356 47.9208 0.607205 47.8133 0.679531 47.6766C0.824463 47.4027 1.0357 47.0131 1.31023 46.5251C1.85947 45.5487 2.66714 44.1707 3.72722 42.5293C5.84264 39.254 8.98802 34.878 13.1063 30.485C21.2689 21.7783 33.7521 12.5 50 12.5ZM50 20.8333C37.0817 20.8333 26.6478 28.222 19.1854 36.1816C15.4922 40.1211 12.6468 44.0797 10.7259 47.054C9.97903 48.2106 9.3784 49.2137 8.92335 50C9.3784 50.7863 9.97903 51.7894 10.7259 52.946C12.6468 55.9203 15.4922 59.8789 19.1854 63.8184C26.6478 71.778 37.0817 79.1667 50 79.1667C62.9184 79.1667 73.3522 71.778 80.8146 63.8184C84.5078 59.8789 87.3532 55.9203 89.2741 52.946C90.0204 51.7903 90.6177 50.7861 91.0726 50C90.6177 49.2139 90.0204 48.2097 89.2741 47.054C87.3532 44.0797 84.5078 40.1211 80.8146 36.1816C73.3522 28.222 62.9184 20.8333 50 20.8333ZM4.16667 50L0.439459 51.8636C-0.147056 50.6906 -0.147056 49.3094 0.439459 48.1364L4.16667 50ZM99.5606 48.1364C100.147 49.3094 100.147 50.6906 99.5606 51.8636L95.8334 50L99.5606 48.1364Z" fill="black"/>
<path d="M58.3333 50C58.3333 45.3977 54.6024 41.6667 50 41.6667C45.3976 41.6667 41.6666 45.3977 41.6666 50C41.6666 54.6024 45.3976 58.3334 50 58.3334C54.6024 58.3334 58.3333 54.6024 58.3333 50ZM66.6666 50C66.6666 59.2048 59.2047 66.6667 50 66.6667C40.7952 66.6667 33.3333 59.2048 33.3333 50C33.3333 40.7953 40.7952 33.3334 50 33.3334C59.2047 33.3334 66.6666 40.7953 66.6666 50Z" fill="black"/>
</g>
<defs>
<clipPath id="clip0_339_1207">
<rect width="100" height="100" fill="white"/>
</clipPath>
</defs>
</svg>
