<svg width="100" height="100" viewBox="0 0 100 100" fill="none" xmlns="http://www.w3.org/2000/svg">
<mask id="mask0_166_28" style="mask-type:alpha" maskUnits="userSpaceOnUse" x="0" y="0" width="100" height="100">
<rect width="100" height="100" fill="#D9D9D9"/>
</mask>
<g mask="url(#mask0_166_28)">
<path d="M57.4844 86.6823C57.751 86.7892 57.9913 86.8427 58.2052 86.8427C58.4191 86.8427 58.6594 86.7892 58.926 86.6823L83.1573 79.2146C83.0767 77.9486 82.6986 77.0365 82.0229 76.4781C81.3465 75.9198 80.5813 75.6406 79.7271 75.6406H59.9583C58.1965 75.6406 56.6 75.5712 55.1688 75.4323C53.7368 75.2934 52.2701 74.9625 50.7688 74.4396L43.6302 72.1396C43.0601 71.9528 42.6503 71.5788 42.401 71.0177C42.1517 70.4566 42.1205 69.901 42.3073 69.351C42.4948 68.801 42.8514 68.399 43.3771 68.1448C43.9035 67.8913 44.4552 67.858 45.0323 68.0448L51.4906 70.3844C52.8316 70.8385 54.3153 71.1299 55.9417 71.2583C57.5681 71.3861 59.5802 71.458 61.9781 71.474H63.0604C63.0604 70.176 62.8215 69.1264 62.3438 68.325C61.866 67.5236 61.1809 66.9656 60.2885 66.651L36.3146 57.8521C36.1542 57.7993 36.0069 57.7594 35.8729 57.7323C35.7396 57.7059 35.5927 57.6927 35.4323 57.6927H26.6823V77.724L57.4844 86.6823ZM56.4188 90.801L26.6823 82.099C26.2872 83.7448 25.4472 85.0563 24.1625 86.0333C22.8778 87.0111 21.4743 87.5 19.9521 87.5H16.7469C14.8962 87.5 13.3115 86.841 11.9927 85.5229C10.6747 84.2049 10.0156 82.6201 10.0156 80.7688V60.2562C10.0156 58.4056 10.6747 56.8212 11.9927 55.5031C13.3115 54.1851 14.8962 53.526 16.7469 53.526H35.3406C35.7281 53.526 36.1274 53.5698 36.5385 53.6573C36.9497 53.7455 37.3316 53.8486 37.6844 53.9667L61.7625 62.7885C63.2528 63.3545 64.5361 64.3722 65.6125 65.8417C66.6889 67.3104 67.2271 69.1878 67.2271 71.474H79.7271C82.2382 71.474 84.1615 72.2594 85.4969 73.8302C86.8323 75.4003 87.5 77.3927 87.5 79.8073C87.5 80.6406 87.2743 81.3444 86.8229 81.9187C86.3715 82.493 85.7132 82.9247 84.8479 83.2135L60.3281 90.7771C59.7247 90.9479 59.0865 91.0469 58.4135 91.074C57.7406 91.1003 57.0757 91.0094 56.4188 90.801ZM14.1823 80.7688C14.1823 81.5167 14.4229 82.1313 14.9042 82.6125C15.3847 83.0931 15.999 83.3333 16.7469 83.3333H19.9521C20.7 83.3333 21.3142 83.133 21.7948 82.7323C22.2753 82.3316 22.5156 81.6771 22.5156 80.7688V57.6927H16.7469C15.999 57.6927 15.3847 57.933 14.9042 58.4135C14.4229 58.8941 14.1823 59.5083 14.1823 60.2562V80.7688ZM65.3833 48.9906C64.5562 48.9906 63.7431 48.8396 62.9438 48.5375C62.1444 48.2361 61.4142 47.7833 60.7531 47.1792L49.6958 36.5708C47.8632 34.8076 46.334 32.8354 45.1083 30.6542C43.8819 28.4722 43.2688 26.0962 43.2688 23.526C43.2688 20.4628 44.341 17.8594 46.4854 15.7156C48.6292 13.5719 51.2323 12.5 54.2948 12.5C56.5705 12.5 58.6406 13.1156 60.5052 14.3469C62.3691 15.5781 63.9955 17.0726 65.3844 18.8302C66.7733 17.0726 68.4 15.5781 70.2646 14.3469C72.1285 13.1156 74.1983 12.5 76.474 12.5C79.5372 12.5 82.1406 13.5719 84.2844 15.7156C86.4281 17.8594 87.5 20.4628 87.5 23.526C87.5 26.0962 86.891 28.4722 85.6729 30.6542C84.4549 32.8354 82.9299 34.8076 81.0979 36.5708L70.0156 47.1792C69.3538 47.7833 68.6233 48.2361 67.824 48.5375C67.024 48.8396 66.2104 48.9906 65.3833 48.9906ZM67.1479 44.1823L77.8604 33.9187C79.3403 32.4924 80.6222 30.9125 81.7063 29.1792C82.791 27.4451 83.3333 25.5608 83.3333 23.526C83.3333 21.624 82.6656 20.0052 81.3302 18.6698C79.9948 17.3344 78.376 16.6667 76.474 16.6667C74.8073 16.6667 73.3132 17.1649 71.9917 18.1615C70.6694 19.1573 69.4819 20.3309 68.4292 21.6823L67.7323 22.524C67.1295 23.2823 66.3514 23.6615 65.3979 23.6615C64.4438 23.6615 63.6566 23.2823 63.0365 22.524L62.3396 21.6823C61.2875 20.3309 60.1004 19.1573 58.7781 18.1615C57.4559 17.1649 55.9615 16.6667 54.2948 16.6667C52.3934 16.6667 50.775 17.3344 49.4396 18.6698C48.1035 20.0052 47.4354 21.624 47.4354 23.526C47.4354 25.5608 47.9778 27.4451 49.0625 29.1792C50.1472 30.9125 51.4292 32.4924 52.9083 33.9187L63.6219 44.1823C64.1024 44.6635 64.6899 44.9042 65.3844 44.9042C66.0788 44.9042 66.6667 44.6635 67.1479 44.1823Z" fill="#1F1F1F"/>
</g>
</svg>
